<?xml version="1.0" encoding="UTF-8" standalone="no"?>
<svg
   version="1.1"
   x="0px"
   y="0px"
   viewBox="0 0 100 125"
   enable-background="new 0 0 100 100"
   xml:space="preserve"
   id="svg57"
   sodipodi:docname="logo.svg"
   inkscape:version="1.2.2 (b0a8486541, 2022-12-01)"
   xmlns:inkscape="http://www.inkscape.org/namespaces/inkscape"
   xmlns:sodipodi="http://sodipodi.sourceforge.net/DTD/sodipodi-0.dtd"
   xmlns="http://www.w3.org/2000/svg"
   xmlns:svg="http://www.w3.org/2000/svg"><defs
     id="defs61" /><sodipodi:namedview
     id="namedview59"
     pagecolor="#ffffff"
     bordercolor="#666666"
     borderopacity="1.0"
     inkscape:showpageshadow="2"
     inkscape:pageopacity="0.0"
     inkscape:pagecheckerboard="0"
     inkscape:deskcolor="#d1d1d1"
     showgrid="false"
     inkscape:zoom="8.016"
     inkscape:cx="28.63024"
     inkscape:cy="62.5"
     inkscape:window-width="1720"
     inkscape:window-height="1371"
     inkscape:window-x="20"
     inkscape:window-y="20"
     inkscape:window-maximized="0"
     inkscape:current-layer="svg57" /><path
     d="m 43.648806,40.515535 c 0,0.96931 -0.785812,1.75504 -1.755039,1.75504 -0.969308,0 -1.755039,-0.78573 -1.755039,-1.75504 0,-0.969308 0.785731,-1.755038 1.755039,-1.755038 0.969227,0 1.755039,0.78573 1.755039,1.755038 z m 14.457651,-1.755038 c -0.969226,0 -1.754956,0.78573 -1.754956,1.755038 0,0.96931 0.78573,1.75504 1.754956,1.75504 0.96931,0 1.75504,-0.78573 1.75504,-1.75504 0,-0.969308 -0.78573,-1.755038 -1.75504,-1.755038 z m -4.596389,12.089337 c -0.435711,0 -0.806824,0.274874 -0.949864,0.660488 -0.318379,0.168747 -1.23924,0.41264 -2.560215,0.41264 -1.320977,0 -2.241836,-0.243893 -2.560215,-0.41264 -0.14304,-0.385614 -0.514153,-0.660488 -0.949864,-0.660488 -0.558976,0 -1.012484,0.453508 -1.012484,1.012484 0,1.537843 2.336097,2.085613 4.522563,2.085613 2.186465,0 4.522563,-0.54777 4.522563,-2.085613 0,-0.558976 -0.453508,-1.012484 -1.012484,-1.012484 z m 1.375687,-35.765889 c 0.03296,0 0.06591,-0.0014 0.09887,-0.0047 0.556338,-0.05405 0.963706,-0.54843 0.910313,-1.105428 L 55.384087,8.6893398 C 55.330037,8.132342 54.822474,7.7249749 54.278659,7.7790266 c -0.55634,0.054049 -0.963706,0.5484296 -0.910313,1.1054275 l 0.510856,5.2845639 c 0.05076,0.52338 0.491082,0.914927 1.006553,0.914927 z M 49.55373,48.020018 h 1.589919 c 0.558976,0 1.012484,-0.453509 1.012484,-1.012485 0,-0.558976 -0.453508,-1.012484 -1.012484,-1.012484 h -1.274175 v -2.210855 c 0,-0.558976 -0.45351,-1.012485 -1.012486,-1.012485 -0.558976,0 -1.012484,0.453509 -1.012484,1.012485 v 2.526597 c 0,0.942612 0.766614,1.709227 1.709226,1.709227 z m 37.815252,56.206742 v 8.09065 c 0,1.30252 -1.059945,2.36247 -2.362463,2.36247 h -5.341912 c -1.302519,0 -2.362464,-1.05995 -2.362464,-2.36247 v -8.09065 c 0,-0.81811 0.418737,-1.53965 1.052612,-1.96383 -0.01057,-0.068 -0.04037,-0.12911 -0.04037,-0.20005 v -0.82009 c 0,-0.74561 0.604375,-1.349991 1.349979,-1.349991 h 5.342652 c 0.745603,0 1.34998,0.604381 1.34998,1.349991 v 0.82009 c 0,0.071 -0.02983,0.13208 -0.04037,0.20013 0.633709,0.42418 1.052365,1.14572 1.052365,1.96375 z m -2.024969,0 c 0,-0.18588 -0.151608,-0.33749 -0.337494,-0.33749 h -5.341912 c -0.185886,0 -0.337495,0.15161 -0.337495,0.33749 v 8.09065 c 0,0.18589 0.151609,0.3375 0.337495,0.3375 h 5.341912 c 0.185886,0 0.337494,-0.15161 0.337494,-0.3375 z m -8.976573,0 v 8.09065 c 0,1.30252 -1.059944,2.36247 -2.362464,2.36247 h -5.343234 c -1.30252,0 -2.362465,-1.05995 -2.362465,-2.36247 v -8.09065 c 0,-0.81844 0.41915,-1.54015 1.053354,-1.96424 -0.01057,-0.0679 -0.04029,-0.12887 -0.04029,-0.19964 v -0.82009 c 0,-0.74561 0.604377,-1.349991 1.349979,-1.349991 h 5.342659 c 0.745521,0 1.349979,0.604381 1.349979,1.349991 v 0.82009 c 0,0.0709 -0.02983,0.13191 -0.04037,0.19989 0.633957,0.42417 1.052859,1.14572 1.052859,1.96399 z m -2.024969,0 c 0,-0.18588 -0.151609,-0.33749 -0.337495,-0.33749 h -5.343234 c -0.185886,0 -0.337495,0.15161 -0.337495,0.33749 v 8.09065 c 0,0.18589 0.151609,0.3375 0.337495,0.3375 h 5.343234 c 0.185886,0 0.337495,-0.15161 0.337495,-0.3375 z m -51.643973,0 v 8.09065 c 0,1.30252 -1.059944,2.36247 -2.362464,2.36247 h -5.34257 c -1.302519,0 -2.362464,-1.05995 -2.362464,-2.36247 v -8.09065 c 0,-0.81819 0.418738,-1.53965 1.052612,-1.96383 -0.01057,-0.068 -0.04037,-0.12911 -0.04037,-0.20005 v -0.82009 c 0,-0.74561 0.604459,-1.349991 1.34998,-1.349991 h 5.342652 c 0.745604,0 1.349979,0.604381 1.349979,1.349991 v 0.82009 c 0,0.0709 -0.02975,0.13191 -0.04029,0.19981 0.634039,0.42409 1.052941,1.1458 1.052941,1.96407 z m -2.024969,0 c 0,-0.18588 -0.151609,-0.33749 -0.337495,-0.33749 h -5.34257 c -0.185885,0 -0.337495,0.15161 -0.337495,0.33749 v 8.09065 c 0,0.18589 0.15161,0.3375 0.337495,0.3375 h 5.34257 c 0.185886,0 0.337495,-0.15161 0.337495,-0.3375 z m 13.02717,0 v 8.09065 c 0,1.30252 -1.059944,2.36247 -2.362464,2.36247 h -5.343229 c -1.302519,0 -2.362464,-1.05995 -2.362464,-2.36247 v -8.09065 c 0,-0.81835 0.418985,-1.54006 1.053106,-1.96416 -0.01057,-0.0679 -0.04029,-0.12886 -0.04029,-0.19972 v -0.82009 c 0,-0.74561 0.604377,-1.349991 1.34998,-1.349991 h 5.342653 c 0.745521,0 1.34998,0.604381 1.34998,1.349991 v 0.82009 c 0,0.0709 -0.02983,0.13191 -0.04037,0.19981 0.634038,0.42409 1.053105,1.14572 1.053105,1.96407 z m -2.024969,0 c 0,-0.18588 -0.151609,-0.33749 -0.337495,-0.33749 h -5.343229 c -0.185886,0 -0.337495,0.15161 -0.337495,0.33749 v 8.09065 c 0,0.18589 0.151609,0.3375 0.337495,0.3375 h 5.343229 c 0.185886,0 0.337495,-0.15161 0.337495,-0.3375 z m 67.052065,13.86893 -0.01977,4.57069 c -0.0066,1.22869 -1.009847,2.22667 -2.235904,2.22667 H 3.5080917 c -1.2326473,0 -2.2359036,-1.00325 -2.2359036,-2.2359 v -4.56541 c 0,-0.16051 0.045318,-0.30692 0.1118117,-0.4418 0.00569,-0.0116 0.00264,-0.0252 0.00882,-0.0368 L 12.387766,97.143321 c 0.386933,-0.718495 1.132454,-1.164094 1.946528,-1.164094 h 18.463921 c 0.09377,-0.374738 0.26721,-0.728299 0.531372,-1.020395 0.06765,-0.0749 0.147325,-0.135047 0.223129,-0.200058 v -3.72439 L 14.710681,87.647322 C 12.309985,87.216226 10.399711,85.390325 9.8611692,83.010722 9.3219683,80.63112 10.259308,78.159234 12.240113,76.735427 L 32.039592,62.504613 c 0.910561,-0.654391 1.942326,-0.995758 2.983649,-1.091833 0.004,0.03238 4.95e-4,0.06394 0.0057,0.09649 l 1.98756,12.380772 0.482018,3.002601 -0.379516,2.438762 3.37775,0.60726 c 0.536811,-0.09953 1.095622,-0.123017 1.663745,-0.02472 l 2.330823,0.407532 0.506243,-3.195819 c 0.210933,-1.32625 1.453468,-2.225356 2.780377,-2.021014 1.32559,0.210934 2.229972,1.455447 2.019696,2.780377 l -0.686443,4.332887 c 0.107781,0.123924 0.225436,0.237384 0.321263,0.373586 0.726405,1.034896 1.006552,2.289955 0.789026,3.534467 l -0.736951,4.214731 c -0.24035,1.376676 -1.063488,2.501796 -2.16529,3.189227 l -0.102588,0.647141 h 17.697067 c 0.09558,0 0.188523,0.01845 0.282537,0.0299 l -2.69454,-17.312508 2.26532,-14.118343 c 0.09723,0.07054 0.18671,0.14996 0.277181,0.228649 1.327486,0.765296 2.369962,2.025545 2.815972,3.618347 l 8.220923,29.356122 h 9.585893 c 0.814734,0 1.559595,0.445599 1.94455,1.162775 l 10.99627,20.471178 c 0.0066,0.0123 0.0034,0.0268 0.0094,0.0393 0.06633,0.13538 0.111314,0.28229 0.110576,0.44321 z m -58.584371,-26.641003 4.215391,0.736951 c 0.802456,0.142381 1.581842,-0.0997 2.17114,-0.581635 l -4.201382,-0.734068 c -0.551067,-0.09624 -0.919543,-0.620938 -0.823304,-1.172004 0.09624,-0.551065 0.623575,-0.907017 1.171345,-0.823962 l 4.859316,0.849093 0.148066,-0.846456 -4.85907,-0.84901 c -0.551065,-0.09624 -0.919541,-0.620938 -0.823302,-1.172005 0.09624,-0.551066 0.624893,-0.909653 1.171345,-0.823961 l 4.859975,0.849175 0.147984,-0.846538 -4.858988,-0.849012 c -0.551065,-0.09624 -0.919541,-0.620937 -0.823302,-1.172003 0.09624,-0.551066 0.625552,-0.910972 1.171345,-0.823962 l 4.203854,0.734563 c -0.03436,-0.05751 -0.05974,-0.118899 -0.09854,-0.174269 -0.415278,-0.590616 -1.036875,-0.984799 -1.748777,-1.108723 l -4.214732,-0.736952 c -1.462038,-0.261031 -2.874639,0.729042 -3.131715,2.19899 L 37.94378,88.32363 c -0.256416,1.469948 0.73036,2.875298 2.19965,3.131057 z m -5.339356,2.75228 c 0.09393,-0.01145 0.18671,-0.0299 0.282207,-0.0299 h 7.209997 l 0.04457,-0.281219 -2.546126,-0.445187 c -1.229843,-0.215223 -2.256829,-0.897958 -2.954065,-1.825245 l -1.59033,-0.285914 z m -0.06188,2.377377 c 0.755408,7.445986 7.314806,13.060796 15.257801,13.060796 7.943654,0 14.502393,-5.61481 15.257801,-13.060796 0.01318,-0.133151 -0.05009,-0.224117 -0.08965,-0.267622 -0.03823,-0.04351 -0.122606,-0.114696 -0.25444,-0.114696 H 35.08627 c -0.131175,0 -0.216208,0.0712 -0.25444,0.114696 -0.03955,0.04351 -0.102827,0.135789 -0.08965,0.267622 z M 49.999987,111.6701 c -1.413507,0 -2.781532,-0.17509 -4.098305,-0.47492 l -0.01426,0.68323 c 0,0.21225 0.21489,0.48383 0.410663,0.51942 2.456066,0.44033 4.947069,0.44033 7.404453,0 0.195114,-0.0356 0.410004,-0.30717 0.410004,-0.52074 v -0.68505 c -1.321141,0.30191 -2.693944,0.47806 -4.11256,0.47806 z M 33.552716,78.690195 v -2.310719 l -2.57175,1.848311 z M 3.9780798,117.07925 H 96.022558 L 85.827839,98.100435 c -0.03164,-0.05932 -0.0936,-0.09624 -0.160838,-0.09624 H 67.088051 C 66.03165,103.8854 61.787585,108.60209 56.137512,110.61223 v 1.26618 c -0.0014,1.201 -0.913609,2.30314 -2.077702,2.51275 -1.346684,0.24126 -2.703255,0.36255 -4.059827,0.36255 -1.35657,0 -2.713142,-0.12129 -4.059825,-0.36255 -1.165413,-0.20961 -2.077703,-1.31307 -2.077703,-2.51275 v -1.26627 C 38.212629,108.60184 33.96873,103.88498 32.911916,98.004196 H 14.334294 c -0.0679,0 -0.130516,0.03823 -0.163474,0.09755 z m 92.7203792,2.02498 H 3.2971574 v 3.55292 c 0,0.11602 0.09492,0.21094 0.2109343,0.21094 H 96.472111 c 0.116014,0 0.209616,-0.0949 0.210934,-0.21226 z M 53.904251,107.33804 c 0.07251,0 0.146336,-0.0106 0.218844,-0.0303 0.601823,-0.16875 1.194416,-0.37836 1.760643,-0.62226 0.410662,-0.17665 0.600503,-0.65258 0.423845,-1.0639 -0.175998,-0.41 -0.64994,-0.59852 -1.064559,-0.42318 -0.50031,0.21489 -1.02435,0.39945 -1.556299,0.54843 -0.431098,0.12128 -0.682241,0.5682 -0.561613,0.9993 0.100191,0.35727 0.425165,0.59193 0.779139,0.59193 z M 30.986404,39.957054 c -0.145512,-6.216382 0.40267,-10.801319 1.209,-14.153197 0.08306,-0.463974 0.176987,-0.927369 0.290858,-1.388211 -0.05027,-0.05215 -0.10744,-0.09558 -0.15334,-0.152763 -0.450871,-0.562271 -0.619618,-1.288018 -0.462736,-1.991352 l 0.835826,-3.756608 c 0.176329,-0.791416 0.730938,-1.399417 1.445725,-1.677833 L 35.31171,10.100621 C 33.828578,9.0110152 32.991434,7.5028347 32.991434,5.8779813 c 0,-3.1824713 3.236523,-5.77103055 7.21527,-5.77103055 1.833811,0 3.569405,0.55568004 4.896973,1.54773045 1.326908,-0.99205041 3.062502,-1.54773045 4.896312,-1.54773045 1.834469,0 3.570062,0.55568004 4.896971,1.54773045 1.326909,-0.99205041 3.062502,-1.54773045 4.896312,-1.54773045 3.978749,0 7.215272,2.58855935 7.215272,5.77103055 0,1.6248534 -0.837145,3.1330339 -2.320278,4.2226397 l 1.159892,6.736056 c 0.715364,0.2785 1.270055,0.88716 1.446466,1.678905 l 0.835827,3.755949 c 0.137685,0.616242 0.01102,1.244678 -0.323569,1.770942 0.705641,2.4634 0.928686,5.017847 0.906028,7.318596 0.259965,2.442471 0.381417,5.289673 0.30034,8.594749 0.825279,1.12199 0.98966,2.912377 0.291846,4.703753 -0.167017,0.428954 -0.385037,0.821984 -0.625886,1.190708 -0.240515,2.810946 -0.604624,5.873366 -1.134102,9.240652 -0.09755,0.623575 -0.635439,1.083675 -1.266923,1.083675 h -6.517623 c -0.53294,0.448235 -1.104439,0.858239 -1.716726,1.227291 v 4.595814 H 59.69654 L 57.674619,74.599223 H 42.325852 L 40.302943,61.997711 h 1.656412 l -0.0028,-4.625476 c -0.597538,-0.361307 -1.156184,-0.761423 -1.677999,-1.197629 h -6.616663 c -0.634121,0 -1.173322,-0.464055 -1.268242,-1.091585 -0.508467,-3.369676 -0.857909,-6.434238 -1.088454,-9.246503 -0.231946,-0.35867 -0.442222,-0.746757 -0.609568,-1.176288 -0.697566,-1.791211 -0.533433,-3.581104 0.290859,-4.703176 z m 25.032463,18.448595 c -1.714418,0.689739 -3.688878,1.117127 -5.967464,1.232894 -2.321347,-0.117085 -4.330579,-0.551478 -6.070292,-1.2558 v 3.524662 c 0.346723,0.393524 2.400696,1.226715 6.018878,1.226715 3.618182,0 5.672155,-0.833191 6.018878,-1.226715 z m 8.62919,-20.285783 c -4.633963,-2.575953 -8.010641,-7.035071 -9.336149,-9.746071 -0.08627,-0.176575 -0.307833,-0.195279 -0.432168,-0.0431 -4.532369,5.550209 -14.796135,7.780592 -19.60964,8.547207 0.752278,12.52686 4.116845,20.196382 14.781303,20.738302 10.223064,-0.523792 13.697629,-7.7052 14.596654,-19.496344 z m 1.740126,2.830062 c -0.217938,1.742598 -0.515388,3.417549 -0.911549,5.002193 0.280806,-0.04376 0.549829,-0.203684 0.677627,-0.294567 0.518107,-0.368476 0.978207,-0.99996 1.262968,-1.732298 0.561613,-1.442923 0.279488,-2.79422 -0.348041,-3.038772 -0.07779,-0.03033 -0.158201,-0.04285 -0.23862,-0.04285 -0.153091,0 -0.306101,0.04713 -0.442385,0.106293 z M 36.940518,8.7532799 c 0.359248,0.2142299 0.550407,0.6281881 0.479217,1.0414874 L 36.236526,16.665953 H 63.763452 L 62.580243,9.7947673 c -0.0712,-0.4132993 0.119969,-0.8272575 0.479875,-1.0414874 1.2221,-0.7290425 1.923457,-1.7771219 1.923457,-2.8752985 0,-2.0658378 -2.328187,-3.7460613 -5.190302,-3.7460613 -1.653198,0 -3.177198,0.5734777 -4.181773,1.573438 -0.395502,0.3941835 -1.033577,0.3941835 -1.42908,0 -1.003915,-0.9999605 -2.528574,-1.573438 -4.182431,-1.573438 -1.653197,0 -3.177857,0.5734777 -4.181772,1.573438 -0.395502,0.3941835 -1.033579,0.3935243 -1.42908,6.592e-4 -1.004576,-1.0006195 -2.529235,-1.5740972 -4.182433,-1.5740972 -2.862115,0 -5.190301,1.6802235 -5.190301,3.7460613 0,1.0981768 0.701356,2.1462571 1.924115,2.8752985 z M 33.846376,22.711857 c -0.03032,0.137107 0.02835,0.236642 0.06658,0.284102 0.03757,0.04746 0.121947,0.12656 0.263009,0.12656 H 65.82468 c 0.141061,0 0.225435,-0.0791 0.263667,-0.12656 0.03692,-0.0468 0.09624,-0.146336 0.06591,-0.283443 l -0.837142,-3.757268 c -0.03428,-0.156223 -0.168748,-0.264326 -0.328267,-0.264326 h -29.97706 c -0.159519,0 -0.294649,0.108758 -0.329584,0.264326 z m -1.264288,21.213399 c 0.465787,1.194003 1.316363,1.939937 1.947517,2.026452 -0.397891,-1.584231 -0.696494,-3.258605 -0.915256,-5.000791 -0.136695,-0.05965 -0.290447,-0.107281 -0.444281,-0.107281 -0.08108,0 -0.162156,0.01252 -0.239937,0.04285 -0.62687,0.244551 -0.909655,1.595849 -0.348043,3.038772 z m 12.43326,-28.845925 c 0.03296,0.0033 0.06591,0.0047 0.09887,0.0047 0.514811,0 0.955795,-0.391546 1.006552,-0.914927 l 0.511518,-5.2846056 c 0.05405,-0.5563389 -0.353973,-1.0513758 -0.910313,-1.1054275 -0.551066,-0.05998 -1.051376,0.3526564 -1.105427,0.9103132 l -0.511516,5.2845639 c -0.05405,0.556339 0.353974,1.051375 0.910313,1.105427 z M 57.68393,105.58861 c 0.156883,0 0.31772,-0.0461 0.457463,-0.14238 1.545094,-1.06127 2.769831,-2.42443 3.545015,-3.94184 0.204343,-0.39814 0.04614,-0.88592 -0.353315,-1.08894 -0.395502,-0.20435 -0.885924,-0.0448 -1.088948,0.35331 -0.652578,1.27747 -1.696703,2.43365 -3.020315,3.34331 -0.369136,0.25312 -0.462738,0.75673 -0.208298,1.12586 0.156882,0.22807 0.410003,0.35068 0.668398,0.35068 z"
     id="path55"
     style="fill:#ffffff;fill-opacity:1;stroke-width:1.34997" /></svg>
